<svg width="24" height="24" viewBox="0 0 24 24" fill="none" xmlns="http://www.w3.org/2000/svg">
<path fill-rule="evenodd" clip-rule="evenodd" d="M12.1 2C10.7546 3.31543 9.99735 5.11839 10 7C9.99959 9.84443 11.7204 12.4063 14.3538 13.4816C16.9871 14.5569 20.0093 13.9317 22 11.9V12C22 17.523 17.523 22 12 22C6.477 22 2 17.523 2 12C2 6.477 6.477 2 12 2H12.1ZM8.238 4.938C5.62888 6.328 3.99914 9.04372 4 12C3.9985 15.6728 6.49807 18.8748 10.0614 19.7648C13.6248 20.6548 17.3364 19.0042 19.062 15.762C16.0273 16.4769 12.8388 15.5704 10.6342 13.3658C8.42963 11.1612 7.52305 7.97267 8.238 4.938Z" fill="#475467"/>
</svg>
